<?xml version="1.0" encoding="UTF-8" standalone="no"?>
<!-- Created with Inkscape (http://www.inkscape.org/) -->

<svg
   xmlns:dc="http://purl.org/dc/elements/1.1/"
   xmlns:cc="http://creativecommons.org/ns#"
   xmlns:rdf="http://www.w3.org/1999/02/22-rdf-syntax-ns#"
   xmlns:svg="http://www.w3.org/2000/svg"
   xmlns="http://www.w3.org/2000/svg"
   xmlns:sodipodi="http://sodipodi.sourceforge.net/DTD/sodipodi-0.dtd"
   xmlns:inkscape="http://www.inkscape.org/namespaces/inkscape"
   width="48"
   height="48"
   viewBox="0 0 48 48.000001"
   id="svg2"
   version="1.1"
   inkscape:version="0.91 r13725"
   sodipodi:docname="20.svg">
  <defs
     id="defs4" />
  <sodipodi:namedview
     id="base"
     pagecolor="#ffffff"
     bordercolor="#666666"
     borderopacity="1.0"
     inkscape:pageopacity="0.0"
     inkscape:pageshadow="2"
     inkscape:zoom="8.1028037"
     inkscape:cx="25.5"
     inkscape:cy="18.5"
     inkscape:document-units="px"
     inkscape:current-layer="layer1"
     showgrid="false"
     units="px"
     inkscape:window-width="1920"
     inkscape:window-height="1017"
     inkscape:window-x="1912"
     inkscape:window-y="-8"
     inkscape:window-maximized="1" />
  <metadata
     id="metadata7">
    <rdf:RDF>
      <cc:Work
         rdf:about="">
        <dc:format>image/svg+xml</dc:format>
        <dc:type
           rdf:resource="http://purl.org/dc/dcmitype/StillImage" />
        <dc:title></dc:title>
      </cc:Work>
    </rdf:RDF>
  </metadata>
  <g
     inkscape:label="Layer 1"
     inkscape:groupmode="layer"
     id="layer1"
     transform="translate(0,-1004.3622)">
    <rect
       style="opacity:1;fill:#444444;fill-opacity:1;stroke:#eeeeee;stroke-width:1.76000011;stroke-linecap:round;stroke-linejoin:miter;stroke-miterlimit:4;stroke-dasharray:none;stroke-opacity:1"
       id="rect4136"
       width="42.240002"
       height="42.240002"
       x="2.8800001"
       y="1007.2422"
       ry="2.4847059" />
    <g
       style="font-style:normal;font-weight:normal;font-size:20.93666458px;line-height:125%;font-family:sans-serif;letter-spacing:0px;word-spacing:0px;fill:#000000;fill-opacity:1;stroke:none;stroke-width:1px;stroke-linecap:butt;stroke-linejoin:miter;stroke-opacity:1"
       id="text4138">
      <path
         d="m 22.231425,1035.9834 -9.313135,0 0,-1.5948 3.578043,-3.8949 q 1.993481,-2.1775 2.627306,-3.2407 0.633825,-1.0734 0.633825,-2.3615 0,-1.1552 -0.654271,-1.8197 -0.644048,-0.6747 -1.74813,-0.6747 -1.635677,0 -3.250908,1.4005 l -1.042744,-1.2165 q 1.962813,-1.7584 4.314098,-1.7584 1.983258,0 3.128232,1.0837 1.144974,1.0836 1.144974,2.9135 0,1.2165 -0.603156,2.4944 -0.603156,1.2779 -2.974887,3.8336 l -2.872658,3.0567 0,0.082 7.033411,0 0,1.697 z"
         style="font-style:normal;font-variant:normal;font-weight:normal;font-stretch:normal;font-family:'Noto Mono';-inkscape-font-specification:'Noto Mono';fill:#cccccc"
         id="path4148" />
      <path
         d="m 30.113343,1036.1879 q -2.341062,0 -3.547374,-1.9731 -1.206312,-1.9832 -1.206312,-5.7248 0,-7.6877 4.753686,-7.6877 2.371732,0 3.578044,1.9832 1.216534,1.9731 1.216534,5.7045 0,7.6979 -4.794578,7.6979 z m 0,-1.5846 q 1.502779,0 2.208164,-1.4312 0.705386,-1.4415 0.705386,-4.6821 0,-3.2203 -0.705386,-4.6515 -0.705385,-1.4414 -2.208164,-1.4414 -1.482332,0 -2.177494,1.4312 -0.68494,1.421 -0.68494,4.6617 0,3.2509 0.68494,4.6821 0.695162,1.4312 2.177494,1.4312 z"
         style="font-style:normal;font-variant:normal;font-weight:normal;font-stretch:normal;font-family:'Noto Mono';-inkscape-font-specification:'Noto Mono';fill:#cccccc"
         id="path4150" />
    </g>
    <path
       style="opacity:1;fill:#cccccc;fill-opacity:1;stroke:none;stroke-width:2;stroke-linecap:round;stroke-linejoin:miter;stroke-miterlimit:4;stroke-dasharray:none;stroke-opacity:1"
       d="m 24.000002,1009.707 -5.98254,5.9825 11.965078,0 z m -5.98254,31.3278 5.98254,5.9825 5.982538,-5.9825 z"
       id="rect4142"
       inkscape:connector-curvature="0"
       sodipodi:nodetypes="cccccccc" />
  </g>
</svg>
