<?xml version="1.0" encoding="UTF-8" standalone="no"?>
<!-- Created with Inkscape (http://www.inkscape.org/) -->

<svg
   xmlns:dc="http://purl.org/dc/elements/1.1/"
   xmlns:cc="http://creativecommons.org/ns#"
   xmlns:rdf="http://www.w3.org/1999/02/22-rdf-syntax-ns#"
   xmlns:svg="http://www.w3.org/2000/svg"
   xmlns="http://www.w3.org/2000/svg"
   xmlns:sodipodi="http://sodipodi.sourceforge.net/DTD/sodipodi-0.dtd"
   xmlns:inkscape="http://www.inkscape.org/namespaces/inkscape"
   width="48"
   height="48"
   viewBox="0 0 48 48.000001"
   id="svg2"
   version="1.1"
   inkscape:version="0.91 r13725"
   sodipodi:docname="6.svg">
  <defs
     id="defs4" />
  <sodipodi:namedview
     id="base"
     pagecolor="#ffffff"
     bordercolor="#666666"
     borderopacity="1.0"
     inkscape:pageopacity="0.0"
     inkscape:pageshadow="2"
     inkscape:zoom="8.1028037"
     inkscape:cx="25.5"
     inkscape:cy="18.5"
     inkscape:document-units="px"
     inkscape:current-layer="layer1"
     showgrid="false"
     units="px"
     inkscape:window-width="1920"
     inkscape:window-height="1017"
     inkscape:window-x="1912"
     inkscape:window-y="-8"
     inkscape:window-maximized="1" />
  <metadata
     id="metadata7">
    <rdf:RDF>
      <cc:Work
         rdf:about="">
        <dc:format>image/svg+xml</dc:format>
        <dc:type
           rdf:resource="http://purl.org/dc/dcmitype/StillImage" />
        <dc:title></dc:title>
      </cc:Work>
    </rdf:RDF>
  </metadata>
  <g
     inkscape:label="Layer 1"
     inkscape:groupmode="layer"
     id="layer1"
     transform="translate(0,-1004.3622)">
    <rect
       style="opacity:1;fill:#444444;fill-opacity:1;stroke:#eeeeee;stroke-width:1.76000011;stroke-linecap:round;stroke-linejoin:miter;stroke-miterlimit:4;stroke-dasharray:none;stroke-opacity:1"
       id="rect4136"
       width="42.240002"
       height="42.240002"
       x="2.8800001"
       y="1007.2422"
       ry="2.4847059" />
    <g
       style="font-style:normal;font-weight:normal;font-size:20.93666458px;line-height:125%;font-family:sans-serif;letter-spacing:0px;word-spacing:0px;fill:#000000;fill-opacity:1;stroke:none;stroke-width:1px;stroke-linecap:butt;stroke-linejoin:miter;stroke-opacity:1"
       id="text4138">
      <path
         d="m 27.583156,1020.8739 0,1.5846 q -0.725832,-0.2454 -1.697015,-0.2454 -2.289948,0 -3.445144,1.4414 -1.144974,1.4415 -1.247204,4.5697 l 0.122676,0 q 0.971183,-1.7379 3.138455,-1.7379 1.993481,0 3.118009,1.2165 1.134751,1.2166 1.134751,3.3225 0,2.3308 -1.236981,3.6803 -1.226758,1.3392 -3.302023,1.3392 -2.22861,0 -3.557597,-1.7175 -1.318765,-1.7277 -1.318765,-4.8763 0,-8.7713 6.532485,-8.7713 1.06319,0 1.758353,0.1942 z m -0.674717,10.1514 q 0,-1.4823 -0.705386,-2.2797 -0.695162,-0.7974 -1.993481,-0.7974 -1.298318,0 -2.177495,0.8281 -0.879176,0.828 -0.879176,1.8912 0,1.5539 0.828061,2.6886 0.828062,1.1246 2.167272,1.1246 1.298319,0 2.024151,-0.8996 0.736054,-0.8997 0.736054,-2.5558 z"
         style="font-style:normal;font-variant:normal;font-weight:normal;font-stretch:normal;font-family:'Noto Mono';-inkscape-font-specification:'Noto Mono';fill:#cccccc"
         id="path4212" />
    </g>
    <path
       style="opacity:1;fill:#cccccc;fill-opacity:1;stroke:none;stroke-width:2;stroke-linecap:round;stroke-linejoin:miter;stroke-miterlimit:4;stroke-dasharray:none;stroke-opacity:1"
       d="m 24.000002,1009.707 -5.98254,5.9825 11.965078,0 z m -5.98254,31.3278 5.98254,5.9825 5.982538,-5.9825 z"
       id="rect4142"
       inkscape:connector-curvature="0"
       sodipodi:nodetypes="cccccccc" />
  </g>
</svg>
